<?xml version="1.0" encoding="UTF-8" standalone="no"?>
<!-- Created with Inkscape (http://www.inkscape.org/) -->

<svg
   width="64"
   height="64"
   viewBox="0 0 16.933333 16.933333"
   version="1.1"
   id="svg1"
   xml:space="preserve"
   inkscape:version="1.3.2 (091e20ef0f, 2023-11-25, custom)"
   sodipodi:docname="NomAnorWorkbench.svg"
   xmlns:inkscape="http://www.inkscape.org/namespaces/inkscape"
   xmlns:sodipodi="http://sodipodi.sourceforge.net/DTD/sodipodi-0.dtd"
   xmlns="http://www.w3.org/2000/svg"
   xmlns:svg="http://www.w3.org/2000/svg"><sodipodi:namedview
     id="namedview1"
     pagecolor="#ffffff"
     bordercolor="#666666"
     borderopacity="1.0"
     inkscape:showpageshadow="2"
     inkscape:pageopacity="0.0"
     inkscape:pagecheckerboard="0"
     inkscape:deskcolor="#d1d1d1"
     inkscape:document-units="mm"
     inkscape:zoom="6.3856341"
     inkscape:cx="27.013762"
     inkscape:cy="79.553572"
     inkscape:window-width="3840"
     inkscape:window-height="2074"
     inkscape:window-x="3840"
     inkscape:window-y="49"
     inkscape:window-maximized="1"
     inkscape:current-layer="layer1" /><defs
     id="defs1"><linearGradient
       id="linearGradient9338"><stop
         style="stop-color:#000000;stop-opacity:1;"
         offset="0"
         id="stop9340" /><stop
         style="stop-color:#000000;stop-opacity:0;"
         offset="1"
         id="stop9342" /></linearGradient></defs><g
     inkscape:label="Ebene 1"
     inkscape:groupmode="layer"
     id="layer1"><g
       id="Fisch"
       inkscape:label="Fisch"
       style="opacity:1;fill:#000000;fill-opacity:1;stroke:none;stroke-width:19.221;stroke-miterlimit:4;stroke-dasharray:none;stroke-opacity:1"
       transform="matrix(0.01468303,0,0,0.01468303,0.74073228,3.0038925)"><path
         id="Flossenstreifen"
         style="fill:#000000;fill-opacity:1;fill-rule:evenodd;stroke:none;stroke-width:20.5024;stroke-linecap:round;stroke-linejoin:miter;stroke-miterlimit:4;stroke-dasharray:none;stroke-opacity:1"
         d="m 346.37891,19.681641 c -20.47438,-0.715229 -39.4702,6.473618 -48.02735,32.410156 -15.05159,51.237253 -51.45344,91.671333 -72.26172,140.324223 -20.53914,43.7233 -95.79235,49.85868 -109.65039,53.46875 -5.47208,1.73161 -123.0963967,9.76022 -105.337888,69.92773 34.839841,52.21207 87.467868,96.5954 135.679688,129.55664 64.23975,40.87577 4.93777,60.7011 -27.85352,82.75781 -36.212077,18.4738 -96.921908,56.1631 -56.353511,102.21875 43.611931,35.80618 100.876631,46.84855 151.167971,70.5 60.53383,20.2442 119.94399,26.63479 188.20508,31.86719 69.4556,6.61471 134.22961,11.02725 201.33203,7.59961 47.72461,-0.47269 96.94262,-16.70788 136.54882,-32.33398 47.71182,-19.52859 80.59007,-52.87775 115.52149,-86.46094 42.89174,-51.68542 76.56753,25.55899 110.06055,50.37304 39.40564,25.19943 51.87524,74.94895 90.74214,99.50977 60.091,24.67598 52.4286,-128.9884 54.834,-172.30664 8.1324,-60.71115 -8.2268,-120.48303 -9.664,-180.8418 -4.0886,-84.51261 3.1076,-177.75312 0.7949,-254.17187 3.9692,-40.72049 -31.7542,-91.601669 -59.0156,-42.57617 -41.5175,48.88314 -90.10087,93.41058 -120.82426,150.82812 -25.0145,41.10813 -41.2329,30.48258 -74.93554,6.99414 -53.19492,-20.92384 31.32305,-63.00924 44.47851,-88.66211 C 932.36504,141.64821 877.172,118.75042 836.75977,112.57422 785.56869,105.94094 734.36933,101.80955 683.91406,90.421875 635.51318,86.656086 586.92949,87.923615 538.7793,81.363281 493.32113,76.935637 460.60295,53.616455 413.64062,38.582031 401.47124,34.585059 372.7031,20.60122 346.37891,19.681641 Z m 22.27734,67.251953 c 14.24719,0.983887 29.31213,9.844906 43.26172,14.328126 0.63941,0.37074 11.06691,3.98479 11.12891,4.14844 0,0 -32.22554,43.06174 -34.2461,60.66796 -0.79835,12.10629 14.85237,22.13549 24.74414,14.02149 11.93801,-6.36337 38.38477,-64.63477 38.38477,-64.63477 2.05326,-0.60262 78.34528,17.40253 77.16406,20.47657 0,0 -20.04195,35.57931 -22.0625,53.18554 -0.79835,12.10629 9.35219,21.52543 24.13281,11.57813 21.61946,-14.24435 30.98357,-58.83248 31.06641,-59.22852 17.2116,2.34286 34.4544,3.81198 51.58008,4.23242 17.91832,-1.26635 30.56547,-1.10165 48.08158,1.05939 -10.52316,12.56521 -24.52571,31.01542 -26.52885,48.46991 -0.79835,16.38402 13.63016,22.74854 24.74414,14.02344 17.11949,-12.20763 39.16128,-46.58568 45.72179,-55.34918 30.24019,5.64563 56.19525,11.9082 86.8954,14.68902 64.79332,-1.94305 -14.89895,56.06852 -26.95117,74.05469 -17.71634,10.38372 -35.32361,-0.29904 -59.64063,-3.66016 -60.09834,-7.75035 -134.98821,-4.08918 -201.97461,-9.13281 -73.0015,-7.12612 -235.22453,15.17848 -232.53711,-3.78711 -6.45187,-14.59293 44.55027,-73.41054 58.6836,-106.20312 10.67476,-27.029309 24.10437,-33.923344 38.35156,-32.939456 z M 1040.1777,215.9082 c 1.6094,-0.0111 2.5732,1.30575 2.7188,4.26172 0.1679,34.6363 -0.4264,69.22718 -0.7481,103.81055 -4.9815,-0.55335 -15.532,-1.1109 -27.4922,2.25195 -16.31455,4.58721 -14.78384,23.08387 -0.8007,26.63281 9.9868,5.77399 21.7969,4.43797 28.2324,3.11915 -0.012,13.50209 -0.06,27.00402 0.1894,40.50781 -8.6126,-0.47721 -26.3588,-0.84447 -36.1718,3.45508 -13.2591,5.80941 -15.39501,18.19696 -0.8008,26.63476 10.7201,6.19796 29.3722,5.65428 38.084,4.99024 0.3087,7.17698 0.6121,14.35399 1.0547,21.5332 1.3315,7.01444 2.3987,14.04867 3.4257,21.08594 -7.2646,-1.28023 -22.7103,-3.3935 -35.6523,-0.91016 -16.84105,3.2315 -30.06173,21.86103 -1.4121,30.29883 13.6502,3.83454 31.9602,2.99069 40.8301,2.27344 1.1261,12.86776 1.7248,25.76436 2.084,38.67187 -16.1952,-4.9923 -35.4934,-10.606 -43.9473,-3.41211 -8.9813,7.64274 -9.282,20.63944 -0.7988,26.63281 10.8254,6.25888 34.1765,10.41065 44.9902,12.07422 -0.443,27.67858 -2.0987,55.3742 -4.3242,82.97852 -6.4267,23.80196 -60.62075,-61.9817 -91.43362,-86.07813 -32.98099,-33.08309 -68.39898,-52.5482 -111.88867,-22.55273 -33.48828,27.52489 -64.67566,75.95868 -111.58399,91.43555 -43.06653,21.49957 -88.04367,36.2264 -136.18164,37.11132 -61.65638,1.98097 -115.67057,4.1909 -185.76367,-1.8125 -54.62312,-5.791 -110.49803,-16.09893 -164.98438,-29.5957 -39.01224,-19.07112 -143.8372,-38.53521 -122.64453,-54.23242 0.8988,-3.07169 15.99479,-17.53429 35.65821,-33.78711 20.25854,-16.7447 45.36528,-35.38988 64.79297,-45.43945 46.00754,-36.94752 -17.82407,-78.70964 -49.5918,-107.36719 -27.35303,-31.01728 -105.80156,-96.0037 -81.664064,-98.42774 62.504944,-22.96721 129.740374,-21.42175 195.261714,-26.90625 90.7958,-12.64765 181.64747,3.68345 272.47657,4.94922 55.51277,-3.14942 110.27677,4.21645 165.03515,11.8418 56.07135,2.33325 102.72728,34.45756 150.48828,59.95117 45.3456,21.5112 74.21033,-24.68628 93.35157,-57.94726 15.06336,-22.84822 57.9455,-87.95559 69.2109,-88.03321 z"
         transform="scale(0.9375)"
         sodipodi:nodetypes="scccccccccccccccccccccccccssccccccccccccccccccccssccscccsscccscccsccccccccccsccccccccs" /><path
         inkscape:label="Auge"
         sodipodi:nodetypes="ccc"
         id="Auge"
         d="m 255.84035,371.15463 c -49.37467,-27.32838 26.92908,-83.41325 39.57791,-30.72176 5.26019,22.03382 -19.50501,41.53202 -39.57791,30.72176 z"
         style="fill:#000000;fill-opacity:1;fill-rule:nonzero;stroke:none;stroke-width:19.221;stroke-miterlimit:4;stroke-dasharray:none;stroke-opacity:1" /></g></g></svg>
